<?xml version="1.0" encoding="utf-8"?>
<!-- Generator: Adobe Illustrator 20.0.0, SVG Export Plug-In . SVG Version: 6.00 Build 0)  -->
<svg version="1.2" baseProfile="tiny" id="Ebene_1" xmlns="http://www.w3.org/2000/svg" xmlns:xlink="http://www.w3.org/1999/xlink"
	 x="0px" y="0px" viewBox="0 0 1600 450" xml:space="preserve">
<g>
	<path fill="#212121" d="M64.6,337.6V215.1H14.2V149l50.4-24V47h114.7c0,0,0,179.5,0,268.4c0,29.4,12.6,34.8,67.9,29.4v88.9
		C106.6,442.7,64.6,413.3,64.6,337.6z M199.7,217.1v-89.5h47.4v89.5H199.7z"/>
	<path fill="#212121" d="M400.3,264.5v169.3H287.4V127.6h63.1l18.6,36c19.2-25.2,46.8-41.4,106.9-37.2v94.3
		C409.3,213.5,400.3,225.5,400.3,264.5z"/>
	<path fill="#212121" d="M602.6,433.9L489.2,127h121.9l87.7,306.9H602.6z M719.7,433.9l-45-157.3L713.1,127h126.1L719.7,433.9z"/>
	<path fill="#212121" d="M892.1,433.9h-31.8V9.3h109.9v424.5H892.1z"/>
	<path fill="#212121" d="M1139.5,264.5v169.3h-112.9V127.6h63.1l18.6,36c19.2-25.2,46.8-41.4,106.9-37.2v94.3
		C1148.5,213.5,1139.5,225.5,1139.5,264.5z"/>
	<path fill="#212121" d="M1240.4,436.9c-29.8,0-51.7-14.4-51.7-55.8c0-42,21.8-55.2,51.7-55.2c29.4,0,51.2,13.8,51.2,55.2
		C1291.6,421.9,1270.7,436.9,1240.4,436.9z"/>
</g>
</svg>
